<svg viewBox="261.97436400000004 114.369375 485.28 570.141318" xmlns:xlink="http://www.w3.org/1999/xlink" xmlns="http://www.w3.org/2000/svg" style="max-height: 500px" width="485.28" height="570.141318"><path d="M506.709 119.192C511.399 118.868 515.762 119.162 520.319 120.344C529.956 122.843 539.692 128.617 548.801 132.783C563.536 139.477 578.321 146.061 593.153 152.536L684.177 192.739C701.784 200.455 719.875 207.49 736.987 216.248C739.828 217.702 742.072 219.341 743.651 222.22C744.944 224.579 745.059 227.543 744.237 230.078C743.116 233.54 740.489 235.722 737.546 237.645C726.995 244.54 714.179 248.773 702.658 253.818C687.792 260.399 673.073 267.304 658.509 274.528C659.165 287.316 658.98 300.229 658.823 313.03L667.648 312.946C692.331 312.821 717.529 312.834 736.216 331.582C744.582 339.975 749.456 350.734 751.72 362.265C754.057 374.161 753.678 386.765 753.713 398.84L753.742 436.65C753.543 477.601 753.584 518.553 753.865 559.504C753.859 581.709 750.9 599.255 734.557 615.435C725.806 624.099 715.088 629.617 702.98 631.85C692.825 633.724 681.599 632.968 671.301 632.962L625.535 632.939L455.317 632.965L441.551 632.988C433.446 638.055 425.738 643.931 417.998 649.535L387.99 671.233C380.495 676.743 373.071 682.847 365.02 687.513C361.658 689.462 357.962 691.429 354.006 691.563C349.735 691.707 345.041 690.259 341.915 687.269C334.702 680.369 336.948 662.132 337.023 653.076C337.093 646.398 337.085 639.719 336.998 633.042C317.481 631.785 300.092 628.374 286.076 613.689C277.982 605.208 272.044 593.668 269.827 582.149C267.824 571.744 268.416 560.803 268.46 550.253L268.574 511.31C268.515 467.27 267.555 423.09 268.514 379.063C268.92 360.431 274.416 342.458 288.22 329.374C308.619 310.039 338.206 312.516 364.135 313.26C364.004 300.276 363.966 287.29 364.022 274.305C342.044 262.943 318.873 254.042 296.601 243.299C290.672 240.439 279.698 235.849 277.691 229.013C276.865 226.202 277.906 222.684 279.438 220.293C281.278 217.422 287.177 214.941 290.242 213.466C306.997 205.4 324.391 198.478 341.426 191.008L431.406 151.257L472.574 133.111C483.605 128.156 494.912 121.957 506.709 119.192Z" transform="scale(0.987305 0.987305)" fill="#002F54"/><path d="M664.531 333.774C681.1 333.022 701.965 331.757 716.337 341.372C725.454 347.471 730.637 356.956 732.626 367.578C735.142 381.01 733.995 396.098 734 409.752L734 475.42L734.035 538.56C734.047 551.617 734.746 565.148 733.152 578.119C732.446 583.867 730.114 589.099 726.838 593.844C720.392 603.207 710.455 609.586 699.258 611.547C689.266 613.275 678.672 612.125 668.579 612.085L614.81 612.06L515.676 612.013C501.361 611.972 486.608 612.886 472.357 612.011C469.348 611.826 467.893 610.845 465.493 609.179C474.308 605.763 482.875 601.833 490.822 596.673C509.414 584.601 525.395 564.212 530.006 542.252C534.189 522.332 529.093 502.27 529.423 482.248C529.606 471.164 532.716 460.103 531.839 449.006C531.471 444.36 530.224 439.644 527.564 435.764C523.911 430.438 517.766 427.079 511.454 426.06C504.146 424.881 496.189 426.581 490.195 431.019C478.17 439.922 476.699 456.841 474.721 470.497C469.013 461.282 462.696 452.432 457.032 443.191C448.989 430.067 443.129 414.08 431.624 403.525C426.339 398.677 419.388 394.89 412.023 395.411C403.991 395.979 398.298 401.184 393.272 406.901C388.347 402.35 382.93 398.55 376.163 397.392C369.921 396.323 363.247 397.714 358.124 401.49C351.145 406.634 349.272 413.983 347.904 422.04C343.558 422.964 339.117 424.197 335.328 426.576C330.134 429.839 326.765 434.95 325.535 440.93C323.204 452.269 328.134 461.413 334.068 470.59C330.677 472.047 327.442 473.738 324.65 476.182C320.063 480.198 317.34 485.457 317.006 491.572C316.001 509.987 340.594 533.053 352.018 546.209C359.306 554.602 366.334 563.224 373.594 571.644C393.425 595.307 403.019 603.819 433.144 612.381C423.922 620.066 413.645 626.825 403.877 633.801L357.017 667.4C356.905 648.958 356.889 630.515 356.968 612.072C351.98 612.279 346.99 612.429 341.999 612.523C327.284 612.748 312.337 611.597 301.317 600.714C295.187 594.571 291.074 586.707 289.524 578.168C287.41 566.947 288.262 555.13 288.408 543.768L288.497 512.983L288.108 388.555C288.128 372.717 289.212 357.088 301.153 345.379C312.584 334.168 326.052 333.784 341.12 333.863L363.159 333.998C364.106 338.132 365.19 341.992 367.218 345.744C378.119 365.925 406.455 375.666 427.289 381.869C481.25 397.937 546.421 398.891 599.986 380.644C613.512 376.036 625.933 369.829 638.482 363.045L638.589 386.899C632.778 389.293 626.858 392.403 623.007 397.544C620.669 400.665 619.188 404.873 618.321 408.67C616.222 417.864 617.039 427.511 615.575 436.829C614.013 446.768 607.597 457.571 609.409 467.807C609.887 470.51 611.325 473.793 613.733 475.321C621.628 480.33 667.097 479.377 676.72 476.854C680.036 475.985 682.579 474.964 684.279 471.862C685.875 468.95 686.03 465.609 685.747 462.366C684.967 453.412 681.318 444.9 679.895 436.067C678.314 426.251 679.458 415.862 676.503 406.293C673.602 396.902 667.345 391.678 658.998 387.292L658.949 333.938L664.531 333.774Z" transform="scale(0.987305 0.987305)" fill="#1F73B6"/><path d="M511.471 138.45C527.502 145.277 543.455 152.284 559.327 159.471L641.738 195.956C654.238 201.488 666.775 206.937 679.348 212.302C689.964 216.798 701.332 220.985 711.154 227.065C703.142 231.571 694.469 234.977 686.124 238.823C669.939 246.307 653.713 253.703 637.446 261.01L556.603 224.92C544.606 219.561 528.731 211.237 516.726 207.504C513.799 206.593 511.056 206.192 508.083 207.17C505.555 208.001 503.403 209.726 502.239 212.142C501.106 214.493 501.142 217.27 502.075 219.681C503.162 222.491 505.648 224.438 508.177 225.906C516.095 230.501 525.654 233.379 534.069 237.103L597.674 265.409L611.264 271.635C594.673 279.833 577.819 287.164 560.952 294.75C544.524 302.286 528.038 309.694 511.495 316.972C473.179 301.628 435.812 283.299 398.174 266.318C383.877 259.82 369.547 253.395 355.184 247.042C340.229 240.506 325.071 234.171 310.618 226.573C377.366 196.738 444.319 167.362 511.471 138.45Z" transform="scale(0.987305 0.987305)" fill="#1F73B6"/><path d="M410.769 413.009C412.355 412.901 414.024 412.724 415.596 413.03C418.147 413.526 419.909 415.056 421.554 416.977C428.441 425.023 433.465 434.977 439.107 443.935L469.601 491.72C456.833 502.562 447.568 515.171 446.156 532.331C445.745 537.323 445.517 544.774 449.149 548.651C450.274 549.852 451.24 549.966 452.82 550.023C459.471 546.995 457.702 534.42 458.292 528.397C458.605 525.196 459.464 521.879 460.779 518.946C466.233 506.773 481.411 504.507 485.915 492.376C491.23 478.06 485.452 457.527 496.341 445.578C498.921 442.747 502.45 440.937 506.328 440.936C508.644 440.935 510.874 441.641 512.471 443.382C514.681 445.79 515.306 449.319 515.435 452.471C515.871 463.135 512.854 473.968 512.951 484.736C513.096 500.789 517.038 516.809 515.722 532.856C514.238 550.963 504.291 567.806 490.534 579.4C476.192 591.487 456.903 598.205 438.13 596.59C409.234 594.104 392.641 571.608 375.475 551.113L348.106 518.711C342.824 512.71 332.14 503.096 332.442 494.57C332.53 492.109 333.999 490.027 335.864 488.515C337.623 487.089 340.058 486.615 342.263 486.99C351.772 488.608 362.944 506.136 368.399 513.524C371.642 517.915 376.924 526.235 382.799 526.891C384.418 527.071 386.073 526.718 387.356 525.67C388.863 524.437 389.703 522.523 389.914 520.618C390.138 518.6 389.673 516.71 388.709 514.938C385.397 508.853 380.03 503.381 375.635 498.037L352.504 469.742C347.522 463.587 340.503 455.63 341.649 447.103C341.945 444.899 342.891 442.676 344.767 441.372C348.574 438.729 353.059 441.026 356.209 443.567C360.543 447.064 363.837 452.258 367.168 456.677C373.248 464.704 379.274 472.773 385.244 480.882C389.532 486.784 393.646 493.488 398.798 498.652C400.749 500.607 403.728 503.124 406.609 503.412C407.924 503.555 409.238 503.134 410.225 502.253C412.91 499.884 412.467 496.46 411.346 493.423C409.086 487.296 403.966 481.809 400.089 476.629C393.7 467.959 387.356 459.257 381.056 450.522C376.384 444.073 370.943 437.53 367.53 430.323C366.17 427.45 365.099 424.108 365.479 420.894C365.708 418.96 366.581 417.102 368.184 415.936C369.886 414.698 372.012 414.51 374.038 414.812C375.836 415.081 377.601 415.484 379.079 416.585C386.877 422.394 392.326 433.249 397.622 441.263C402.316 448.457 407.15 455.56 412.121 462.566C416.155 468.176 427.369 485.321 434.365 485.842C435.649 485.938 436.824 485.776 437.801 484.861C440.652 482.194 439.933 477.815 438.595 474.61C432.884 460.925 406.604 435.571 406.753 420.727C406.788 417.143 408.286 415.41 410.769 413.009Z" transform="scale(0.987305 0.987305)" fill="#FDB827"/><path d="M384.003 282.633C394.655 286.825 405.169 291.791 415.61 296.491L467.741 320.237C482.104 326.849 496.488 334.469 511.751 338.766C525.8 335.26 538.473 327.781 551.586 321.844C580.43 308.787 609.127 294.899 638.399 282.856C639.873 293.966 638.842 305.643 638.986 316.855C639.011 324.819 639.388 333.316 633.465 339.509C628.19 345.025 620.616 348.697 613.795 351.893C582.707 366.465 548.456 371.662 514.348 372.027C479.827 372.397 444.772 367.457 412.827 353.928C404.988 350.608 396.431 346.789 390.374 340.635C387.616 337.833 385.89 334.399 384.913 330.605C381.739 318.281 383.688 295.816 384.003 282.633Z" transform="scale(0.987305 0.987305)" fill="#1F73B6"/><path d="M645.647 403.974C648.069 404.017 650.602 404.35 652.79 405.453C653.628 405.876 654.757 406.662 655.249 407.482C657.867 411.841 658.33 432.408 659.39 438.881C660.473 445.347 661.981 451.734 663.905 458.001L650.25 458.012L631.735 458.013C634.128 449.86 636.731 441.215 637.483 432.736C638.064 426.184 637.336 419.41 638.705 412.949C639.737 408.079 641.624 406.546 645.647 403.974Z" transform="scale(0.987305 0.987305)" fill="#FDB827"/><path d="M455.995 721.675C476.572 722.314 497.57 720.548 518 721.632C532.231 722.387 547.879 726.029 557.71 737.111C564.983 745.309 567.968 756.735 567.211 767.54C566.282 780.783 558.684 789.13 549.125 797.442C558.868 802.348 566.986 808.685 571.268 819.045C576.364 831.375 573.44 844.251 568.597 856.12C566.505 859.703 564.148 863.052 561.202 865.993C555.26 871.927 547.686 875.645 539.591 877.655C526.059 881.015 511.395 880.042 497.554 880.014L456.065 879.991L455.995 721.675ZM488.085 813.044C487.93 826.038 488.296 839.062 487.921 852.048C499.901 852.187 512.247 853.02 524.07 850.758C530.423 848.725 535.955 845.892 539.204 839.707C541.29 835.798 541.664 831.198 540.237 827.003C538.514 821.865 534.291 818.313 529.513 816.077C521.716 812.427 511.357 812.123 502.95 812.766C498 813.005 493.04 812.998 488.085 813.044ZM488.119 749.429C487.788 761.872 488.757 774.593 487.878 786.971C498.637 787.126 509.626 788.03 520.121 785.235C526.249 782.888 531.561 779.546 534.332 773.289C535.976 769.574 536.125 765.445 534.631 761.656C532.688 756.732 528.321 753.343 523.546 751.367C516.054 748.266 507.645 748.261 499.688 748.789C495.853 748.986 491.932 749 488.119 749.429Z" transform="scale(0.987305 0.987305)" fill="#002F54"/><path d="M217.493 721.735C231.875 721.399 247.288 720.552 261.391 723.586C275.007 726.515 287.649 734.09 295.254 745.969C302.645 757.513 304.49 772.321 301.476 785.571C297.54 802.878 286.522 812.347 272.156 821.406C283.036 841.19 294.744 860.578 306.334 879.955C293.515 880.085 280.696 880.101 267.877 880.004C265.37 875.879 263.167 871.546 260.875 867.298C253.786 852.879 244.893 839.098 238.326 824.472C230.88 824.528 223.434 824.535 215.989 824.495L216.133 879.996C205.1 879.841 194.041 880.006 183.006 880.034C183.675 859.849 183.1 839.452 183.036 819.25L183.003 722.005C194.486 722.005 206.017 722.109 217.493 721.735ZM216.022 750.034C216.013 765.736 215.777 781.477 216.12 797.174C230.378 797.283 243.049 798.505 256.654 793.153C262.243 789.741 266.409 785.3 268.029 778.766C269.413 773.185 268.427 766.372 265.409 761.506C261.652 755.45 255.012 752.349 248.262 750.932C240.268 749.254 232.009 749.415 223.891 749.726L216.022 750.034Z" transform="scale(0.987305 0.987305)" fill="#002F54"/><path d="M635.29 721.511C647.702 722.179 660.22 721.655 672.651 721.776C674.964 731.495 678.897 741.178 682.418 750.518C687.307 763.326 692.119 776.164 696.853 789.03L718.804 849.558C722.477 859.626 725.743 870.217 730.13 879.962L695.165 879.974L682.745 843.995L675.625 843.983L625.337 844.113C621.426 856.121 617.366 868.081 613.157 879.988L579.557 879.91C581.095 874.276 583.398 868.718 585.353 863.202L596.543 831.65C609.855 795.078 622.771 758.362 635.29 721.511ZM634.906 815.52L655.125 815.537L673.32 815.637C670.652 807.467 657.771 763.964 654.089 760.754C647.215 778.836 641.203 797.233 634.906 815.52Z" transform="scale(0.987305 0.987305)" fill="#002F54"/><path d="M798.781 719.211C815.246 718.335 832.821 723.031 845.422 733.99C857.844 744.793 864.071 760.671 865.165 776.873C854.361 776.846 843.557 776.904 832.754 777.049C832.485 774.68 832.039 772.259 831.319 769.981C828.807 762.038 823.522 755.87 816.112 752.094C807.851 747.885 798.4 747.49 789.657 750.385C779.455 753.763 772.062 761.423 767.376 770.92C759.545 786.791 758.956 807.53 764.718 824.151C768.358 834.65 775.351 844.702 785.597 849.596C794.19 853.701 805.021 854.237 813.974 850.901C825.522 846.598 828.978 838.305 833.725 827.974C844.237 826.269 855.094 827.135 865.68 827.615C863.899 839.191 859.96 850.067 852.77 859.407C842.3 873.004 826.734 879.813 809.996 881.837C791.198 884.112 770.492 880.026 755.487 868.069C738.949 854.89 730.884 833.77 728.695 813.249C726.144 789.34 730.658 762.931 746.191 743.886C759.896 727.082 777.859 721.236 798.781 719.211Z" transform="scale(0.987305 0.987305)" fill="#002F54"/><path d="M374.27 719.21C375.177 719.122 376.087 719.07 376.998 719.055C391.58 718.694 407.035 723.666 417.544 734.055C426.065 742.479 431.201 753.804 431.153 765.847C431.05 791.679 411.329 810.676 394.472 827.776C386.124 836.246 377.715 844.657 369.247 853.008L433.989 853.032L433.962 879.984L342.25 879.965L323 879.956L322.978 854.997C324.396 854.125 325.804 853.235 327.2 852.329C341.806 842.801 353.579 829.073 365.885 816.86C374.9 807.914 384.926 799.321 392.393 788.992C395.688 784.434 398.437 779.33 399.511 773.764C400.624 768 399.649 762.111 396.251 757.265C392.748 752.269 386.899 748.683 380.869 747.77C374.977 746.921 368.988 748.45 364.224 752.02C357.398 757.153 355.529 764.25 354.335 772.237C350.429 771.999 346.428 772.262 342.511 772.26C336.025 772.256 329.536 771.981 323.062 772.46C323.18 759.942 326.037 748.014 334.114 738.17C344.102 725.997 359.006 720.669 374.27 719.21Z" transform="scale(0.987305 0.987305)" fill="#002F54"/></svg>